<svg width="512" height="512" viewBox="0 0 512 512" fill="none" xmlns="http://www.w3.org/2000/svg" role="img" aria-label="Snapmaker Studio app icon">
  <!-- App icon (color tile) — Brand Identity Asset Pack §3. Primary Dark tile +
       the official 7-stream Studio Hub mark. -->
  <defs>
    <filter id="glow" x="-80%" y="-80%" width="260%" height="260%"><feGaussianBlur stdDeviation="5"/></filter>
    <filter id="glowL" x="-120%" y="-120%" width="340%" height="340%"><feGaussianBlur stdDeviation="14"/></filter>
    <linearGradient id="s1" x1="30" y1="44" x2="132" y2="112" gradientUnits="userSpaceOnUse"><stop offset="0" stop-color="#9DF6FF"/><stop offset="1" stop-color="#00E1FF"/></linearGradient>
    <linearGradient id="s2" x1="30" y1="72" x2="132" y2="118" gradientUnits="userSpaceOnUse"><stop offset="0" stop-color="#9CF0B4"/><stop offset="1" stop-color="#32CD32"/></linearGradient>
    <linearGradient id="s3" x1="30" y1="100" x2="132" y2="123" gradientUnits="userSpaceOnUse"><stop offset="0" stop-color="#FFFFA8"/><stop offset="1" stop-color="#FFFF00"/></linearGradient>
    <linearGradient id="s4" x1="30" y1="128" x2="132" y2="128" gradientUnits="userSpaceOnUse"><stop offset="0" stop-color="#FFCD96"/><stop offset="1" stop-color="#FF8500"/></linearGradient>
    <linearGradient id="s5" x1="30" y1="156" x2="132" y2="133" gradientUnits="userSpaceOnUse"><stop offset="0" stop-color="#FF94E6"/><stop offset="1" stop-color="#FF00FF"/></linearGradient>
    <linearGradient id="s6" x1="30" y1="184" x2="132" y2="138" gradientUnits="userSpaceOnUse"><stop offset="0" stop-color="#CB97FF"/><stop offset="1" stop-color="#8F00FF"/></linearGradient>
    <linearGradient id="s7" x1="30" y1="212" x2="132" y2="144" gradientUnits="userSpaceOnUse"><stop offset="0" stop-color="#6E8CFF"/><stop offset="1" stop-color="#0000FF"/></linearGradient>
    <linearGradient id="ring" x1="105" y1="84" x2="195" y2="174" gradientUnits="userSpaceOnUse"><stop offset="0" stop-color="#EAF6FF"/><stop offset="0.45" stop-color="#7FE9FF"/><stop offset="0.8" stop-color="#1E6FE0"/><stop offset="1" stop-color="#16223A"/></linearGradient>
    <radialGradient id="bloom" cx="0.5" cy="0.5" r="0.5"><stop offset="0" stop-color="#FFFFFF"/><stop offset="0.35" stop-color="#9DEFFF"/><stop offset="0.7" stop-color="#00E1FF" stop-opacity="0.55"/><stop offset="1" stop-color="#0000FF" stop-opacity="0"/></radialGradient>
    <radialGradient id="halo" cx="0.5" cy="0.5" r="0.5"><stop offset="0" stop-color="#00E1FF" stop-opacity="0.45"/><stop offset="1" stop-color="#00E1FF" stop-opacity="0"/></radialGradient>
    <radialGradient id="pad" cx="0.5" cy="0.5" r="0.5"><stop offset="0" stop-color="#00E1FF" stop-opacity="0.5"/><stop offset="1" stop-color="#0000FF" stop-opacity="0"/></radialGradient>
    <g id="mark">
      <circle cx="150" cy="128" r="78" fill="url(#halo)" filter="url(#glowL)"/>
      <g filter="url(#glow)">
        <rect x="2" y="40" width="7" height="7" rx="2" fill="#00E1FF"/><rect x="2" y="96" width="7" height="7" rx="2" fill="#FFFF00"/>
        <rect x="2" y="152" width="7" height="7" rx="2" fill="#FF00FF"/><rect x="2" y="208" width="7" height="7" rx="2" fill="#0000FF"/>
        <rect x="15" y="68" width="7" height="7" rx="2" fill="#32CD32"/><rect x="15" y="124" width="7" height="7" rx="2" fill="#FF8500"/><rect x="15" y="180" width="7" height="7" rx="2" fill="#8F00FF"/>
      </g>
      <g fill="none" stroke-linecap="round">
        <g filter="url(#glow)" opacity="0.7" stroke-width="16">
          <path d="M30 44 C84 44 104 112 130 112" stroke="#00E1FF"/><path d="M30 72 C84 72 104 118 130 118" stroke="#32CD32"/><path d="M30 100 C84 100 104 123 130 123" stroke="#FFFF00"/><path d="M30 128 C84 128 104 128 130 128" stroke="#FF8500"/><path d="M30 156 C84 156 104 133 130 133" stroke="#FF00FF"/><path d="M30 184 C84 184 104 138 130 138" stroke="#8F00FF"/><path d="M30 212 C84 212 104 144 130 144" stroke="#0000FF"/>
        </g>
        <g stroke-width="13">
          <path d="M30 44 C84 44 104 112 130 112" stroke="url(#s1)"/><path d="M30 72 C84 72 104 118 130 118" stroke="url(#s2)"/><path d="M30 100 C84 100 104 123 130 123" stroke="url(#s3)"/><path d="M30 128 C84 128 104 128 130 128" stroke="url(#s4)"/><path d="M30 156 C84 156 104 133 130 133" stroke="url(#s5)"/><path d="M30 184 C84 184 104 138 130 138" stroke="url(#s6)"/><path d="M30 212 C84 212 104 144 130 144" stroke="url(#s7)"/>
        </g>
        <g stroke-width="3" stroke="#FFFFFF" opacity="0.55"><path d="M30 40 C84 40 104 109 128 109"/><path d="M30 68 C84 68 104 115 128 115"/><path d="M30 96 C84 96 104 120 128 120"/><path d="M30 124 C84 124 104 125 128 125"/></g>
      </g>
      <circle cx="150" cy="128" r="60" fill="url(#bloom)" filter="url(#glowL)"/>
      <circle cx="150" cy="128" r="50" fill="none" stroke="url(#ring)" stroke-width="13"/>
      <circle cx="150" cy="128" r="42" fill="#0A101C"/>
      <circle cx="150" cy="128" r="36" fill="none" stroke="#00E1FF" stroke-width="2.5" opacity="0.95" filter="url(#glow)"/>
      <circle cx="150" cy="128" r="28" fill="url(#bloom)"/>
      <circle cx="150" cy="126" r="10" fill="#FFFFFF" filter="url(#glow)"/>
      <path d="M124 108 A32 32 0 0 1 160 98" stroke="#FFFFFF" stroke-width="3" fill="none" opacity="0.55" stroke-linecap="round"/>
      <ellipse cx="236" cy="196" rx="68" ry="16" fill="url(#pad)" filter="url(#glow)"/>
      <g stroke="#0A101C" stroke-width="1.3" stroke-linejoin="round">
        <polygon points="236,66 260.25,80 236,94 211.75,80" fill="#5BE3FF"/><polygon points="260.25,80 284.5,94 260.25,108 236,94" fill="#16B6E6"/><polygon points="236,94 260.25,108 236,122 211.75,108" fill="#00A6FF"/><polygon points="211.75,80 236,94 211.75,108 187.5,94" fill="#00E1FF"/>
        <polygon points="187.5,94 211.75,108 211.75,138 187.5,124" fill="#FF66FF"/><polygon points="211.75,108 236,122 236,152 211.75,138" fill="#FF00FF"/><polygon points="211.75,138 236,152 236,182 211.75,168" fill="#B100B1"/><polygon points="187.5,124 211.75,138 211.75,168 187.5,154" fill="#D11FD1"/>
        <polygon points="284.5,94 260.25,108 260.25,138 284.5,124" fill="#7BE87B"/><polygon points="260.25,108 236,122 236,152 260.25,138" fill="#32CD32"/><polygon points="236,152 260.25,138 260.25,168 236,182" fill="#1E901E"/><polygon points="284.5,124 260.25,138 260.25,168 284.5,154" fill="#4BD64B"/>
      </g>
      <polygon points="236,66 260.25,80 236,94 211.75,80" fill="#FFFFFF" opacity="0.22"/>
    </g>
  </defs>
  <rect width="512" height="512" rx="112" fill="#0A101C"/>
  <rect width="512" height="512" rx="112" fill="url(#halo)" opacity="0.5"/>
  <use href="#mark" transform="translate(70,96) scale(1.28)"/>
</svg>
