<svg xmlns="http://www.w3.org/2000/svg" viewBox="0 0 512 512" width="512" height="512" role="img" aria-label="Snapmaker Studio">
  <defs>
    <linearGradient id="tile" x1="0" y1="0" x2="1" y2="1">
      <stop offset="0%" stop-color="#141A2C"/><stop offset="100%" stop-color="#0A101C"/>
    </linearGradient>
    <radialGradient id="core" cx="50%" cy="50%" r="50%">
      <stop offset="0%" stop-color="#00E1FF" stop-opacity="0.95"/>
      <stop offset="55%" stop-color="#0061FF" stop-opacity="0.35"/>
      <stop offset="100%" stop-color="#0061FF" stop-opacity="0"/>
    </radialGradient>
    <linearGradient id="cube" x1="0" y1="0" x2="1" y2="1">
      <stop offset="0%" stop-color="#00E1FF"/><stop offset="50%" stop-color="#8000FF"/><stop offset="100%" stop-color="#FF8300"/>
    </linearGradient>
  </defs>
  <rect x="0" y="0" width="512" height="512" rx="112" fill="url(#tile)"/>
  <g stroke-width="14" stroke-linecap="round" fill="none" opacity="0.95">
    <path d="M70 196 C 150 196, 180 256, 236 256" stroke="#00E1FF"/>
    <path d="M70 230 C 150 230, 175 256, 236 256" stroke="#FF00FF"/>
    <path d="M70 264 C 150 264, 175 256, 236 256" stroke="#FFFF00"/>
    <path d="M70 298 C 150 298, 180 256, 236 256" stroke="#32CD32"/>
    <path d="M70 332 C 150 332, 185 256, 236 256" stroke="#FF8300"/>
  </g>
  <circle cx="262" cy="256" r="78" fill="url(#core)"/>
  <circle cx="262" cy="256" r="58" stroke="#0061FF" stroke-width="11" fill="none" opacity="0.95"/>
  <circle cx="262" cy="256" r="36" stroke="#00E1FF" stroke-width="6" fill="none" opacity="0.75"/>
  <g transform="translate(330 196)">
    <path d="M52 16 L96 40 L96 92 L52 116 L8 92 L8 40 Z" fill="url(#cube)" opacity="0.92"/>
    <path d="M52 16 L96 40 L52 64 L8 40 Z" fill="#ffffff" opacity="0.22"/>
    <path d="M52 64 L52 116 L8 92 L8 40 Z" fill="#000000" opacity="0.18"/>
  </g>
</svg>
