<svg width="256" height="256" viewBox="0 0 256 256" fill="none" xmlns="http://www.w3.org/2000/svg" role="img" aria-label="Snapmaker Studio">
  <!-- Simplified Studio Hub for small sizes (transparent), aligned to the Brand
       Identity Asset Pack: saturated stream stubs + glowing hub + glossy cube.
       Still the Hub, not a bare cube. -->
  <defs>
    <filter id="ss" x="-80%" y="-80%" width="260%" height="260%"><feGaussianBlur stdDeviation="5"/></filter>
    <linearGradient id="sch" x1="80" y1="98" x2="146" y2="160" gradientUnits="userSpaceOnUse"><stop offset="0" stop-color="#EAF6FF"/><stop offset="0.5" stop-color="#7FE9FF"/><stop offset="1" stop-color="#16223A"/></linearGradient>
    <radialGradient id="sbloom" cx="0.5" cy="0.5" r="0.5"><stop offset="0" stop-color="#FFFFFF"/><stop offset="0.4" stop-color="#9DEFFF"/><stop offset="0.72" stop-color="#00E1FF" stop-opacity="0.55"/><stop offset="1" stop-color="#0000FF" stop-opacity="0"/></radialGradient>
    <radialGradient id="shalo" cx="0.5" cy="0.5" r="0.5"><stop offset="0" stop-color="#00E1FF" stop-opacity="0.45"/><stop offset="1" stop-color="#00E1FF" stop-opacity="0"/></radialGradient>
  </defs>
  <circle cx="102" cy="128" r="58" fill="url(#shalo)" filter="url(#ss)"/>
  <g fill="none" stroke-linecap="round">
    <g filter="url(#ss)" opacity="0.7" stroke-width="14"><path d="M22 94 C50 98 64 110 82 116" stroke="#00E1FF"/><path d="M22 128 C54 128 68 128 88 128" stroke="#FF8500"/><path d="M22 162 C50 158 64 146 82 140" stroke="#FF00FF"/></g>
    <g stroke-width="13"><path d="M22 94 C50 98 64 110 82 116" stroke="#00E1FF"/><path d="M22 128 C54 128 68 128 88 128" stroke="#FF8500"/><path d="M22 162 C50 158 64 146 82 140" stroke="#FF00FF"/></g>
  </g>
  <circle cx="102" cy="128" r="42" fill="url(#sbloom)" filter="url(#ss)"/>
  <circle cx="102" cy="128" r="34" fill="none" stroke="url(#sch)" stroke-width="9"/>
  <circle cx="102" cy="128" r="27" fill="#0A101C"/>
  <circle cx="102" cy="128" r="22" fill="none" stroke="#00E1FF" stroke-width="2" opacity="0.95" filter="url(#ss)"/>
  <circle cx="102" cy="128" r="16" fill="url(#sbloom)"/>
  <circle cx="102" cy="125" r="6" fill="#FFFFFF"/>
  <g stroke="#0A101C" stroke-width="2.5" stroke-linejoin="round">
    <polygon points="184,76 225.6,100 184,124 142.4,100" fill="#00E1FF"/>
    <polygon points="142.4,100 184,124 184,172 142.4,148" fill="#FF00FF"/>
    <polygon points="225.6,100 184,124 184,172 225.6,148" fill="#32CD32"/>
  </g>
  <polygon points="184,76 225.6,100 184,124 142.4,100" fill="#FFFFFF" opacity="0.18"/>
</svg>
